# xmcd
#
# Track frame offsets: 
#        150
#        19887
#        32232
#        50364
#        65976
#        86181
#        105039
#        118649
#        135551
#        149591
#        161912
#        177044
#        193559
#        208423
#        221769
#        234727
#        251119
#        270258
#        289670
#        304135
#        320748
#
# Disc length: 4471 seconds
#
# Revision: 0
# Processed by: cddbd v1.5.2PL0 Copyright (c) Steve Scherf et al.
# Submitted via: ExactAudioCopy v1.3
#
DISCID=48117515
DTITLE=Fesaci - 50 let [CD2)
DYEAR=2017
DGENRE=Country
TTITLE0=Amerika
TTITLE1=Jolene
TTITLE2=Nas vuz
TTITLE3=Zase jsem ta druha
TTITLE4=Divka z Rocky Mountain
TTITLE5=Navraty
TTITLE6=Jednou ty, jednou ja
TTITLE7=Dva a dva je pet
TTITLE8=Pane muj
TTITLE9=Neni kam se hnat
TTITLE10=Leta jdou
TTITLE11=Vyznani pumparovo
TTITLE12=Mestsky holky
TTITLE13=Do Australie
TTITLE14=Plava Jane
TTITLE15=No tak delej!
TTITLE16=Dnes beru
TTITLE17=Jsi pojem
TTITLE18=Byl to pad
TTITLE19=Country (LIVE 92)
TTITLE20=Buraky (LIVE 92)
EXTD=
EXTT0=
EXTT1=
EXTT2=
EXTT3=
EXTT4=
EXTT5=
EXTT6=
EXTT7=
EXTT8=
EXTT9=
EXTT10=
EXTT11=
EXTT12=
EXTT13=
EXTT14=
EXTT15=
EXTT16=
EXTT17=
EXTT18=
EXTT19=
EXTT20=
PLAYORDER=
